<svg id="visual" viewBox="0 0 1920 1080" width="1920" height="1080" xmlns="http://www.w3.org/2000/svg" xmlns:xlink="http://www.w3.org/1999/xlink" version="1.1"><rect x="0" y="0" width="1920" height="1080" fill="#c4f0db"></rect><path d="M0 724L35.5 719.5C71 715 142 706 213.2 691C284.3 676 355.7 655 426.8 656.7C498 658.3 569 682.7 640 667.7C711 652.7 782 598.3 853.2 577.2C924.3 556 995.7 568 1066.8 581.3C1138 594.7 1209 609.3 1280 633.5C1351 657.7 1422 691.3 1493.2 713.5C1564.3 735.7 1635.7 746.3 1706.8 744C1778 741.7 1849 726.3 1884.5 718.7L1920 711L1920 1081L1884.5 1081C1849 1081 1778 1081 1706.8 1081C1635.7 1081 1564.3 1081 1493.2 1081C1422 1081 1351 1081 1280 1081C1209 1081 1138 1081 1066.8 1081C995.7 1081 924.3 1081 853.2 1081C782 1081 711 1081 640 1081C569 1081 498 1081 426.8 1081C355.7 1081 284.3 1081 213.2 1081C142 1081 71 1081 35.5 1081L0 1081Z" fill="#57adf3"></path><path d="M0 680L35.5 667.7C71 655.3 142 630.7 213.2 644C284.3 657.3 355.7 708.7 426.8 719.5C498 730.3 569 700.7 640 677.3C711 654 782 637 853.2 649C924.3 661 995.7 702 1066.8 718C1138 734 1209 725 1280 719.5C1351 714 1422 712 1493.2 705.5C1564.3 699 1635.7 688 1706.8 683.3C1778 678.7 1849 680.3 1884.5 681.2L1920 682L1920 1081L1884.5 1081C1849 1081 1778 1081 1706.8 1081C1635.7 1081 1564.3 1081 1493.2 1081C1422 1081 1351 1081 1280 1081C1209 1081 1138 1081 1066.8 1081C995.7 1081 924.3 1081 853.2 1081C782 1081 711 1081 640 1081C569 1081 498 1081 426.8 1081C355.7 1081 284.3 1081 213.2 1081C142 1081 71 1081 35.5 1081L0 1081Z" fill="#009dbd"></path><path d="M0 736L35.5 752.8C71 769.7 142 803.3 213.2 801.8C284.3 800.3 355.7 763.7 426.8 763.2C498 762.7 569 798.3 640 811.3C711 824.3 782 814.7 853.2 797.5C924.3 780.3 995.7 755.7 1066.8 734.2C1138 712.7 1209 694.3 1280 684C1351 673.7 1422 671.3 1493.2 680.8C1564.3 690.3 1635.7 711.7 1706.8 719.3C1778 727 1849 721 1884.5 718L1920 715L1920 1081L1884.5 1081C1849 1081 1778 1081 1706.8 1081C1635.7 1081 1564.3 1081 1493.2 1081C1422 1081 1351 1081 1280 1081C1209 1081 1138 1081 1066.8 1081C995.7 1081 924.3 1081 853.2 1081C782 1081 711 1081 640 1081C569 1081 498 1081 426.8 1081C355.7 1081 284.3 1081 213.2 1081C142 1081 71 1081 35.5 1081L0 1081Z" fill="#00857e"></path><path d="M0 794L35.5 795.8C71 797.7 142 801.3 213.2 792.3C284.3 783.3 355.7 761.7 426.8 761.5C498 761.3 569 782.7 640 791.3C711 800 782 796 853.2 790.8C924.3 785.7 995.7 779.3 1066.8 777.5C1138 775.7 1209 778.3 1280 789.5C1351 800.7 1422 820.3 1493.2 836.7C1564.3 853 1635.7 866 1706.8 853.5C1778 841 1849 803 1884.5 784L1920 765L1920 1081L1884.5 1081C1849 1081 1778 1081 1706.8 1081C1635.7 1081 1564.3 1081 1493.2 1081C1422 1081 1351 1081 1280 1081C1209 1081 1138 1081 1066.8 1081C995.7 1081 924.3 1081 853.2 1081C782 1081 711 1081 640 1081C569 1081 498 1081 426.8 1081C355.7 1081 284.3 1081 213.2 1081C142 1081 71 1081 35.5 1081L0 1081Z" fill="#0a6e41"></path><path d="M0 771L35.5 773.5C71 776 142 781 213.2 799C284.3 817 355.7 848 426.8 853.5C498 859 569 839 640 825.5C711 812 782 805 853.2 816.8C924.3 828.7 995.7 859.3 1066.8 872C1138 884.7 1209 879.3 1280 884C1351 888.7 1422 903.3 1493.2 886.5C1564.3 869.7 1635.7 821.3 1706.8 800C1778 778.7 1849 784.3 1884.5 787.2L1920 790L1920 1081L1884.5 1081C1849 1081 1778 1081 1706.8 1081C1635.7 1081 1564.3 1081 1493.2 1081C1422 1081 1351 1081 1280 1081C1209 1081 1138 1081 1066.8 1081C995.7 1081 924.3 1081 853.2 1081C782 1081 711 1081 640 1081C569 1081 498 1081 426.8 1081C355.7 1081 284.3 1081 213.2 1081C142 1081 71 1081 35.5 1081L0 1081Z" fill="#0a6e41"></path><path d="M0 892L35.5 883.3C71 874.7 142 857.3 213.2 861.5C284.3 865.7 355.7 891.3 426.8 902.3C498 913.3 569 909.7 640 914.7C711 919.7 782 933.3 853.2 926.5C924.3 919.7 995.7 892.3 1066.8 891.8C1138 891.3 1209 917.7 1280 927.8C1351 938 1422 932 1493.2 916.3C1564.3 900.7 1635.7 875.3 1706.8 872.2C1778 869 1849 888 1884.5 897.5L1920 907L1920 1081L1884.5 1081C1849 1081 1778 1081 1706.8 1081C1635.7 1081 1564.3 1081 1493.2 1081C1422 1081 1351 1081 1280 1081C1209 1081 1138 1081 1066.8 1081C995.7 1081 924.3 1081 853.2 1081C782 1081 711 1081 640 1081C569 1081 498 1081 426.8 1081C355.7 1081 284.3 1081 213.2 1081C142 1081 71 1081 35.5 1081L0 1081Z" fill="#00857e"></path><path d="M0 943L35.5 950.5C71 958 142 973 213.2 973.2C284.3 973.3 355.7 958.7 426.8 958.3C498 958 569 972 640 973C711 974 782 962 853.2 952.7C924.3 943.3 995.7 936.7 1066.8 928.3C1138 920 1209 910 1280 906.2C1351 902.3 1422 904.7 1493.2 915.8C1564.3 927 1635.7 947 1706.8 951.7C1778 956.3 1849 945.7 1884.5 940.3L1920 935L1920 1081L1884.5 1081C1849 1081 1778 1081 1706.8 1081C1635.7 1081 1564.3 1081 1493.2 1081C1422 1081 1351 1081 1280 1081C1209 1081 1138 1081 1066.8 1081C995.7 1081 924.3 1081 853.2 1081C782 1081 711 1081 640 1081C569 1081 498 1081 426.8 1081C355.7 1081 284.3 1081 213.2 1081C142 1081 71 1081 35.5 1081L0 1081Z" fill="#009dbd"></path><path d="M0 1011L35.5 1003.2C71 995.3 142 979.7 213.2 977.2C284.3 974.7 355.7 985.3 426.8 990.2C498 995 569 994 640 991.5C711 989 782 985 853.2 988.8C924.3 992.7 995.7 1004.3 1066.8 1005.2C1138 1006 1209 996 1280 994C1351 992 1422 998 1493.2 1005C1564.3 1012 1635.7 1020 1706.8 1018.5C1778 1017 1849 1006 1884.5 1000.5L1920 995L1920 1081L1884.5 1081C1849 1081 1778 1081 1706.8 1081C1635.7 1081 1564.3 1081 1493.2 1081C1422 1081 1351 1081 1280 1081C1209 1081 1138 1081 1066.8 1081C995.7 1081 924.3 1081 853.2 1081C782 1081 711 1081 640 1081C569 1081 498 1081 426.8 1081C355.7 1081 284.3 1081 213.2 1081C142 1081 71 1081 35.5 1081L0 1081Z" fill="#57adf3"></path></svg>