<svg id="visual" viewBox="0 0 960 540" width="960" height="540" xmlns="http://www.w3.org/2000/svg" xmlns:xlink="http://www.w3.org/1999/xlink" version="1.1"><rect x="0" y="0" width="960" height="540" fill="#b3e3eb"></rect><path d="M425 0L342 0L342 36L463 36L463 72L468 72L468 108L415 108L415 144L439 144L439 180L334 180L334 216L444 216L444 252L480 252L480 288L411 288L411 324L383 324L383 360L400 360L400 396L313 396L313 432L398 432L398 468L373 468L373 504L378 504L378 540L0 540L0 504L0 504L0 468L0 468L0 432L0 432L0 396L0 396L0 360L0 360L0 324L0 324L0 288L0 288L0 252L0 252L0 216L0 216L0 180L0 180L0 144L0 144L0 108L0 108L0 72L0 72L0 36L0 36L0 0L0 0Z" fill="#9dcbf0"></path><path d="M413 0L382 0L382 36L430 36L430 72L376 72L376 108L300 108L300 144L378 144L378 180L425 180L425 216L333 216L333 252L401 252L401 288L439 288L439 324L391 324L391 360L262 360L262 396L445 396L445 432L265 432L265 468L415 468L415 504L287 504L287 540L0 540L0 504L0 504L0 468L0 468L0 432L0 432L0 396L0 396L0 360L0 360L0 324L0 324L0 288L0 288L0 252L0 252L0 216L0 216L0 180L0 180L0 144L0 144L0 108L0 108L0 72L0 72L0 36L0 36L0 0L0 0Z" fill="#81c2e3"></path><path d="M315 0L275 0L275 36L304 36L304 72L351 72L351 108L268 108L268 144L278 144L278 180L285 180L285 216L229 216L229 252L298 252L298 288L311 288L311 324L267 324L267 360L260 360L260 396L335 396L335 432L386 432L386 468L277 468L277 504L285 504L285 540L0 540L0 504L0 504L0 468L0 468L0 432L0 432L0 396L0 396L0 360L0 360L0 324L0 324L0 288L0 288L0 252L0 252L0 216L0 216L0 180L0 180L0 144L0 144L0 108L0 108L0 72L0 72L0 36L0 36L0 0L0 0Z" fill="#65b9d4"></path><path d="M302 0L193 0L193 36L196 36L196 72L245 72L245 108L223 108L223 144L327 144L327 180L287 180L287 216L188 216L188 252L307 252L307 288L254 288L254 324L313 324L313 360L253 360L253 396L281 396L281 432L224 432L224 468L234 468L234 504L186 504L186 540L0 540L0 504L0 504L0 468L0 468L0 432L0 432L0 396L0 396L0 360L0 360L0 324L0 324L0 288L0 288L0 252L0 252L0 216L0 216L0 180L0 180L0 144L0 144L0 108L0 108L0 72L0 72L0 36L0 36L0 0L0 0Z" fill="#48afc2"></path><path d="M165 0L157 0L157 36L194 36L194 72L203 72L203 108L195 108L195 144L171 144L171 180L148 180L148 216L226 216L226 252L174 252L174 288L267 288L267 324L158 324L158 360L250 360L250 396L262 396L262 432L160 432L160 468L157 468L157 504L213 504L213 540L0 540L0 504L0 504L0 468L0 468L0 432L0 432L0 396L0 396L0 360L0 360L0 324L0 324L0 288L0 288L0 252L0 252L0 216L0 216L0 180L0 180L0 144L0 144L0 108L0 108L0 72L0 72L0 36L0 36L0 0L0 0Z" fill="#2ca5ae"></path><path d="M163 0L192 0L192 36L118 36L118 72L210 72L210 108L136 108L136 144L201 144L201 180L112 180L112 216L141 216L141 252L186 252L186 288L157 288L157 324L207 324L207 360L163 360L163 396L184 396L184 432L156 432L156 468L176 468L176 504L168 504L168 540L0 540L0 504L0 504L0 468L0 468L0 432L0 432L0 396L0 396L0 360L0 360L0 324L0 324L0 288L0 288L0 252L0 252L0 216L0 216L0 180L0 180L0 144L0 144L0 108L0 108L0 72L0 72L0 36L0 36L0 0L0 0Z" fill="#0e9a97"></path><path d="M112 0L157 0L157 36L120 36L120 72L113 72L113 108L132 108L132 144L95 144L95 180L143 180L143 216L136 216L136 252L89 252L89 288L86 288L86 324L105 324L105 360L143 360L143 396L66 396L66 432L123 432L123 468L126 468L126 504L105 504L105 540L0 540L0 504L0 504L0 468L0 468L0 432L0 432L0 396L0 396L0 360L0 360L0 324L0 324L0 288L0 288L0 252L0 252L0 216L0 216L0 180L0 180L0 144L0 144L0 108L0 108L0 72L0 72L0 36L0 36L0 0L0 0Z" fill="#008f80"></path><path d="M64 0L83 0L83 36L78 36L78 72L50 72L50 108L44 108L44 144L90 144L90 180L89 180L89 216L88 216L88 252L99 252L99 288L84 288L84 324L53 324L53 360L49 360L49 396L65 396L65 432L74 432L74 468L90 468L90 504L83 504L83 540L0 540L0 504L0 504L0 468L0 468L0 432L0 432L0 396L0 396L0 360L0 360L0 324L0 324L0 288L0 288L0 252L0 252L0 216L0 216L0 180L0 180L0 144L0 144L0 108L0 108L0 72L0 72L0 36L0 36L0 0L0 0Z" fill="#018367"></path></svg>