<svg id="visual" viewBox="0 0 960 540" width="960" height="540" xmlns="http://www.w3.org/2000/svg" xmlns:xlink="http://www.w3.org/1999/xlink" version="1.1"><rect x="0" y="0" width="960" height="540" fill="#b3e3eb"></rect><path d="M516 540L503 540L503 504L399 504L399 468L561 468L561 432L454 432L454 396L544 396L544 360L487 360L487 324L577 324L577 288L445 288L445 252L391 252L391 216L403 216L403 180L451 180L451 144L590 144L590 108L547 108L547 72L384 72L384 36L419 36L419 0L960 0L960 36L960 36L960 72L960 72L960 108L960 108L960 144L960 144L960 180L960 180L960 216L960 216L960 252L960 252L960 288L960 288L960 324L960 324L960 360L960 360L960 396L960 396L960 432L960 432L960 468L960 468L960 504L960 504L960 540L960 540Z" fill="#9dcbf0"></path><path d="M546 540L648 540L648 504L653 504L653 468L644 468L644 432L517 432L517 396L453 396L453 360L612 360L612 324L502 324L502 288L612 288L612 252L613 252L613 216L563 216L563 180L463 180L463 144L651 144L651 108L509 108L509 72L449 72L449 36L473 36L473 0L960 0L960 36L960 36L960 72L960 72L960 108L960 108L960 144L960 144L960 180L960 180L960 216L960 216L960 252L960 252L960 288L960 288L960 324L960 324L960 360L960 360L960 396L960 396L960 432L960 432L960 468L960 468L960 504L960 504L960 540L960 540Z" fill="#81c2e3"></path><path d="M601 540L546 540L546 504L539 504L539 468L686 468L686 432L613 432L613 396L643 396L643 360L661 360L661 324L580 324L580 288L576 288L576 252L693 252L693 216L705 216L705 180L579 180L579 144L545 144L545 108L510 108L510 72L519 72L519 36L560 36L560 0L960 0L960 36L960 36L960 72L960 72L960 108L960 108L960 144L960 144L960 180L960 180L960 216L960 216L960 252L960 252L960 288L960 288L960 324L960 324L960 360L960 360L960 396L960 396L960 432L960 432L960 468L960 468L960 504L960 504L960 540L960 540Z" fill="#65b9d4"></path><path d="M685 540L633 540L633 504L640 504L640 468L743 468L743 432L605 432L605 396L709 396L709 360L718 360L718 324L593 324L593 288L581 288L581 252L630 252L630 216L745 216L745 180L674 180L674 144L608 144L608 108L620 108L620 72L650 72L650 36L612 36L612 0L960 0L960 36L960 36L960 72L960 72L960 108L960 108L960 144L960 144L960 180L960 180L960 216L960 216L960 252L960 252L960 288L960 288L960 324L960 324L960 360L960 360L960 396L960 396L960 432L960 432L960 468L960 468L960 504L960 504L960 540L960 540Z" fill="#48afc2"></path><path d="M695 540L750 540L750 504L725 504L725 468L690 468L690 432L643 432L643 396L773 396L773 360L653 360L653 324L791 324L791 288L727 288L727 252L713 252L713 216L705 216L705 180L667 180L667 144L687 144L687 108L710 108L710 72L734 72L734 36L679 36L679 0L960 0L960 36L960 36L960 72L960 72L960 108L960 108L960 144L960 144L960 180L960 180L960 216L960 216L960 252L960 252L960 288L960 288L960 324L960 324L960 360L960 360L960 396L960 396L960 432L960 432L960 468L960 468L960 504L960 504L960 540L960 540Z" fill="#2ca5ae"></path><path d="M825 540L795 540L795 504L730 504L730 468L822 468L822 432L783 432L783 396L769 396L769 360L754 360L754 324L790 324L790 288L734 288L734 252L828 252L828 216L713 216L713 180L755 180L755 144L781 144L781 108L838 108L838 72L804 72L804 36L766 36L766 0L960 0L960 36L960 36L960 72L960 72L960 108L960 108L960 144L960 144L960 180L960 180L960 216L960 216L960 252L960 252L960 288L960 288L960 324L960 324L960 360L960 360L960 396L960 396L960 432L960 432L960 468L960 468L960 504L960 504L960 540L960 540Z" fill="#0e9a97"></path><path d="M782 540L785 540L785 504L831 504L831 468L779 468L779 432L851 432L851 396L780 396L780 360L852 360L852 324L875 324L875 288L802 288L802 252L870 252L870 216L816 216L816 180L782 180L782 144L863 144L863 108L803 108L803 72L829 72L829 36L822 36L822 0L960 0L960 36L960 36L960 72L960 72L960 108L960 108L960 144L960 144L960 180L960 180L960 216L960 216L960 252L960 252L960 288L960 288L960 324L960 324L960 360L960 360L960 396L960 396L960 432L960 432L960 468L960 468L960 504L960 504L960 540L960 540Z" fill="#008f80"></path><path d="M914 540L879 540L879 504L930 504L930 468L886 468L886 432L912 432L912 396L888 396L888 360L877 360L877 324L867 324L867 288L924 288L924 252L848 252L848 216L871 216L871 180L891 180L891 144L878 144L878 108L904 108L904 72L862 72L862 36L929 36L929 0L960 0L960 36L960 36L960 72L960 72L960 108L960 108L960 144L960 144L960 180L960 180L960 216L960 216L960 252L960 252L960 288L960 288L960 324L960 324L960 360L960 360L960 396L960 396L960 432L960 432L960 468L960 468L960 504L960 504L960 540L960 540Z" fill="#018367"></path></svg>