<svg id="visual" viewBox="0 0 960 540" width="960" height="540" xmlns="http://www.w3.org/2000/svg" xmlns:xlink="http://www.w3.org/1999/xlink" version="1.1"><rect x="0" y="0" width="960" height="540" fill="#b3e3eb"></rect><path d="M354 0L415 0L415 36L445 36L445 72L415 72L415 108L299 108L299 144L378 144L378 180L361 180L361 216L380 216L380 252L449 252L449 288L448 288L448 324L503 324L503 360L412 360L412 396L433 396L433 432L385 432L385 468L459 468L459 504L342 504L342 540L0 540L0 504L0 504L0 468L0 468L0 432L0 432L0 396L0 396L0 360L0 360L0 324L0 324L0 288L0 288L0 252L0 252L0 216L0 216L0 180L0 180L0 144L0 144L0 108L0 108L0 72L0 72L0 36L0 36L0 0L0 0Z" fill="#9dcbf0"></path><path d="M328 0L311 0L311 36L309 36L309 72L357 72L357 108L362 108L362 144L333 144L333 180L269 180L269 216L324 216L324 252L324 252L324 288L389 288L389 324L448 324L448 360L314 360L314 396L291 396L291 432L434 432L434 468L332 468L332 504L350 504L350 540L0 540L0 504L0 504L0 468L0 468L0 432L0 432L0 396L0 396L0 360L0 360L0 324L0 324L0 288L0 288L0 252L0 252L0 216L0 216L0 180L0 180L0 144L0 144L0 108L0 108L0 72L0 72L0 36L0 36L0 0L0 0Z" fill="#81c2e3"></path><path d="M316 0L381 0L381 36L350 36L350 72L309 72L309 108L290 108L290 144L219 144L219 180L291 180L291 216L361 216L361 252L334 252L334 288L331 288L331 324L368 324L368 360L288 360L288 396L332 396L332 432L229 432L229 468L382 468L382 504L272 504L272 540L0 540L0 504L0 504L0 468L0 468L0 432L0 432L0 396L0 396L0 360L0 360L0 324L0 324L0 288L0 288L0 252L0 252L0 216L0 216L0 180L0 180L0 144L0 144L0 108L0 108L0 72L0 72L0 36L0 36L0 0L0 0Z" fill="#65b9d4"></path><path d="M226 0L283 0L283 36L264 36L264 72L263 72L263 108L236 108L236 144L323 144L323 180L308 180L308 216L301 216L301 252L233 252L233 288L292 288L292 324L250 324L250 360L180 360L180 396L238 396L238 432L323 432L323 468L234 468L234 504L213 504L213 540L0 540L0 504L0 504L0 468L0 468L0 432L0 432L0 396L0 396L0 360L0 360L0 324L0 324L0 288L0 288L0 252L0 252L0 216L0 216L0 180L0 180L0 144L0 144L0 108L0 108L0 72L0 72L0 36L0 36L0 0L0 0Z" fill="#48afc2"></path><path d="M191 0L183 0L183 36L196 36L196 72L227 72L227 108L270 108L270 144L185 144L185 180L256 180L256 216L169 216L169 252L212 252L212 288L165 288L165 324L209 324L209 360L263 360L263 396L142 396L142 432L249 432L249 468L202 468L202 504L200 504L200 540L0 540L0 504L0 504L0 468L0 468L0 432L0 432L0 396L0 396L0 360L0 360L0 324L0 324L0 288L0 288L0 252L0 252L0 216L0 216L0 180L0 180L0 144L0 144L0 108L0 108L0 72L0 72L0 36L0 36L0 0L0 0Z" fill="#2ca5ae"></path><path d="M119 0L146 0L146 36L210 36L210 72L156 72L156 108L182 108L182 144L122 144L122 180L115 180L115 216L170 216L170 252L165 252L165 288L122 288L122 324L150 324L150 360L172 360L172 396L186 396L186 432L216 432L216 468L155 468L155 504L214 504L214 540L0 540L0 504L0 504L0 468L0 468L0 432L0 432L0 396L0 396L0 360L0 360L0 324L0 324L0 288L0 288L0 252L0 252L0 216L0 216L0 180L0 180L0 144L0 144L0 108L0 108L0 72L0 72L0 36L0 36L0 0L0 0Z" fill="#0e9a97"></path><path d="M159 0L75 0L75 36L159 36L159 72L70 72L70 108L139 108L139 144L157 144L157 180L84 180L84 216L114 216L114 252L110 252L110 288L119 288L119 324L87 324L87 360L156 360L156 396L147 396L147 432L107 432L107 468L99 468L99 504L67 504L67 540L0 540L0 504L0 504L0 468L0 468L0 432L0 432L0 396L0 396L0 360L0 360L0 324L0 324L0 288L0 288L0 252L0 252L0 216L0 216L0 180L0 180L0 144L0 144L0 108L0 108L0 72L0 72L0 36L0 36L0 0L0 0Z" fill="#008f80"></path><path d="M56 0L51 0L51 36L44 36L44 72L86 72L86 108L56 108L56 144L52 144L52 180L58 180L58 216L73 216L73 252L69 252L69 288L94 288L94 324L27 324L27 360L36 360L36 396L96 396L96 432L59 432L59 468L102 468L102 504L86 504L86 540L0 540L0 504L0 504L0 468L0 468L0 432L0 432L0 396L0 396L0 360L0 360L0 324L0 324L0 288L0 288L0 252L0 252L0 216L0 216L0 180L0 180L0 144L0 144L0 108L0 108L0 72L0 72L0 36L0 36L0 0L0 0Z" fill="#018367"></path></svg>