<svg id="visual" viewBox="0 0 1920 1080" width="1920" height="1080" xmlns="http://www.w3.org/2000/svg" xmlns:xlink="http://www.w3.org/1999/xlink" version="1.1"><rect x="0" y="0" width="1920" height="1080" fill="#c5edda"></rect><path d="M0 490L24.7 510C49.3 530 98.7 570 147.8 581.8C197 593.7 246 577.3 295.2 546.5C344.3 515.7 393.7 470.3 443 445.7C492.3 421 541.7 417 590.8 442.8C640 468.7 689 524.3 738.2 546.8C787.3 569.3 836.7 558.7 886 554.2C935.3 549.7 984.7 551.3 1034 540.3C1083.3 529.3 1132.7 505.7 1181.8 486.3C1231 467 1280 452 1329.2 442C1378.3 432 1427.7 427 1477 446.2C1526.3 465.3 1575.7 508.7 1624.8 542.2C1674 575.7 1723 599.3 1772.2 599.8C1821.3 600.3 1870.7 577.7 1895.3 566.3L1920 555L1920 0L1895.3 0C1870.7 0 1821.3 0 1772.2 0C1723 0 1674 0 1624.8 0C1575.7 0 1526.3 0 1477 0C1427.7 0 1378.3 0 1329.2 0C1280 0 1231 0 1181.8 0C1132.7 0 1083.3 0 1034 0C984.7 0 935.3 0 886 0C836.7 0 787.3 0 738.2 0C689 0 640 0 590.8 0C541.7 0 492.3 0 443 0C393.7 0 344.3 0 295.2 0C246 0 197 0 147.8 0C98.7 0 49.3 0 24.7 0L0 0Z" fill="#9fc9eb"></path><path d="M0 327L24.7 327.5C49.3 328 98.7 329 147.8 328.5C197 328 246 326 295.2 328.7C344.3 331.3 393.7 338.7 443 352.2C492.3 365.7 541.7 385.3 590.8 383C640 380.7 689 356.3 738.2 368C787.3 379.7 836.7 427.3 886 427C935.3 426.7 984.7 378.3 1034 360.5C1083.3 342.7 1132.7 355.3 1181.8 372C1231 388.7 1280 409.3 1329.2 421C1378.3 432.7 1427.7 435.3 1477 423.8C1526.3 412.3 1575.7 386.7 1624.8 395.7C1674 404.7 1723 448.3 1772.2 476C1821.3 503.7 1870.7 515.3 1895.3 521.2L1920 527L1920 0L1895.3 0C1870.7 0 1821.3 0 1772.2 0C1723 0 1674 0 1624.8 0C1575.7 0 1526.3 0 1477 0C1427.7 0 1378.3 0 1329.2 0C1280 0 1231 0 1181.8 0C1132.7 0 1083.3 0 1034 0C984.7 0 935.3 0 886 0C836.7 0 787.3 0 738.2 0C689 0 640 0 590.8 0C541.7 0 492.3 0 443 0C393.7 0 344.3 0 295.2 0C246 0 197 0 147.8 0C98.7 0 49.3 0 24.7 0L0 0Z" fill="#76b2cd"></path><path d="M0 317L24.7 309.5C49.3 302 98.7 287 147.8 293.2C197 299.3 246 326.7 295.2 351.2C344.3 375.7 393.7 397.3 443 385.2C492.3 373 541.7 327 590.8 325.2C640 323.3 689 365.7 738.2 380.8C787.3 396 836.7 384 886 379.7C935.3 375.3 984.7 378.7 1034 364.7C1083.3 350.7 1132.7 319.3 1181.8 311.8C1231 304.3 1280 320.7 1329.2 331.2C1378.3 341.7 1427.7 346.3 1477 340.3C1526.3 334.3 1575.7 317.7 1624.8 313.5C1674 309.3 1723 317.7 1772.2 311.3C1821.3 305 1870.7 284 1895.3 273.5L1920 263L1920 0L1895.3 0C1870.7 0 1821.3 0 1772.2 0C1723 0 1674 0 1624.8 0C1575.7 0 1526.3 0 1477 0C1427.7 0 1378.3 0 1329.2 0C1280 0 1231 0 1181.8 0C1132.7 0 1083.3 0 1034 0C984.7 0 935.3 0 886 0C836.7 0 787.3 0 738.2 0C689 0 640 0 590.8 0C541.7 0 492.3 0 443 0C393.7 0 344.3 0 295.2 0C246 0 197 0 147.8 0C98.7 0 49.3 0 24.7 0L0 0Z" fill="#519bac"></path><path d="M0 191L24.7 192.3C49.3 193.7 98.7 196.3 147.8 218.3C197 240.3 246 281.7 295.2 281.3C344.3 281 393.7 239 443 227.3C492.3 215.7 541.7 234.3 590.8 254.3C640 274.3 689 295.7 738.2 295.2C787.3 294.7 836.7 272.3 886 255C935.3 237.7 984.7 225.3 1034 228C1083.3 230.7 1132.7 248.3 1181.8 267.3C1231 286.3 1280 306.7 1329.2 296C1378.3 285.3 1427.7 243.7 1477 247.2C1526.3 250.7 1575.7 299.3 1624.8 297.2C1674 295 1723 242 1772.2 228.2C1821.3 214.3 1870.7 239.7 1895.3 252.3L1920 265L1920 0L1895.3 0C1870.7 0 1821.3 0 1772.2 0C1723 0 1674 0 1624.8 0C1575.7 0 1526.3 0 1477 0C1427.7 0 1378.3 0 1329.2 0C1280 0 1231 0 1181.8 0C1132.7 0 1083.3 0 1034 0C984.7 0 935.3 0 886 0C836.7 0 787.3 0 738.2 0C689 0 640 0 590.8 0C541.7 0 492.3 0 443 0C393.7 0 344.3 0 295.2 0C246 0 197 0 147.8 0C98.7 0 49.3 0 24.7 0L0 0Z" fill="#2e8389"></path><path d="M0 245L24.7 228.8C49.3 212.7 98.7 180.3 147.8 162.2C197 144 246 140 295.2 152.5C344.3 165 393.7 194 443 195.2C492.3 196.3 541.7 169.7 590.8 168.5C640 167.3 689 191.7 738.2 196.3C787.3 201 836.7 186 886 186.7C935.3 187.3 984.7 203.7 1034 207.5C1083.3 211.3 1132.7 202.7 1181.8 187.3C1231 172 1280 150 1329.2 140.2C1378.3 130.3 1427.7 132.7 1477 146.3C1526.3 160 1575.7 185 1624.8 202.7C1674 220.3 1723 230.7 1772.2 228.7C1821.3 226.7 1870.7 212.3 1895.3 205.2L1920 198L1920 0L1895.3 0C1870.7 0 1821.3 0 1772.2 0C1723 0 1674 0 1624.8 0C1575.7 0 1526.3 0 1477 0C1427.7 0 1378.3 0 1329.2 0C1280 0 1231 0 1181.8 0C1132.7 0 1083.3 0 1034 0C984.7 0 935.3 0 886 0C836.7 0 787.3 0 738.2 0C689 0 640 0 590.8 0C541.7 0 492.3 0 443 0C393.7 0 344.3 0 295.2 0C246 0 197 0 147.8 0C98.7 0 49.3 0 24.7 0L0 0Z" fill="#116c65"></path><path d="M0 110L24.7 117C49.3 124 98.7 138 147.8 129C197 120 246 88 295.2 77.8C344.3 67.7 393.7 79.3 443 88.7C492.3 98 541.7 105 590.8 116.2C640 127.3 689 142.7 738.2 145.5C787.3 148.3 836.7 138.7 886 124.7C935.3 110.7 984.7 92.3 1034 89.8C1083.3 87.3 1132.7 100.7 1181.8 112C1231 123.3 1280 132.7 1329.2 138.3C1378.3 144 1427.7 146 1477 143.7C1526.3 141.3 1575.7 134.7 1624.8 136.2C1674 137.7 1723 147.3 1772.2 150.5C1821.3 153.7 1870.7 150.3 1895.3 148.7L1920 147L1920 0L1895.3 0C1870.7 0 1821.3 0 1772.2 0C1723 0 1674 0 1624.8 0C1575.7 0 1526.3 0 1477 0C1427.7 0 1378.3 0 1329.2 0C1280 0 1231 0 1181.8 0C1132.7 0 1083.3 0 1034 0C984.7 0 935.3 0 886 0C836.7 0 787.3 0 738.2 0C689 0 640 0 590.8 0C541.7 0 492.3 0 443 0C393.7 0 344.3 0 295.2 0C246 0 197 0 147.8 0C98.7 0 49.3 0 24.7 0L0 0Z" fill="#005442"></path></svg>