<svg id="visual" viewBox="0 0 1920 1080" width="1920" height="1080" xmlns="http://www.w3.org/2000/svg" xmlns:xlink="http://www.w3.org/1999/xlink" version="1.1"><rect x="0" y="0" width="1920" height="1080" fill="#acd7ce"></rect><path d="M0 549L35.5 544.3C71 539.7 142 530.3 213.2 528.3C284.3 526.3 355.7 531.7 426.8 556.7C498 581.7 569 626.3 640 602.5C711 578.7 782 486.3 853.2 472.8C924.3 459.3 995.7 524.7 1066.8 573.5C1138 622.3 1209 654.7 1280 650.8C1351 647 1422 607 1493.2 556.3C1564.3 505.7 1635.7 444.3 1706.8 439.7C1778 435 1849 487 1884.5 513L1920 539L1920 1081L1884.5 1081C1849 1081 1778 1081 1706.8 1081C1635.7 1081 1564.3 1081 1493.2 1081C1422 1081 1351 1081 1280 1081C1209 1081 1138 1081 1066.8 1081C995.7 1081 924.3 1081 853.2 1081C782 1081 711 1081 640 1081C569 1081 498 1081 426.8 1081C355.7 1081 284.3 1081 213.2 1081C142 1081 71 1081 35.5 1081L0 1081Z" fill="#71beff"></path><path d="M0 728L35.5 704.7C71 681.3 142 634.7 213.2 599.3C284.3 564 355.7 540 426.8 557.5C498 575 569 634 640 656.3C711 678.7 782 664.3 853.2 641.2C924.3 618 995.7 586 1066.8 571.7C1138 557.3 1209 560.7 1280 557C1351 553.3 1422 542.7 1493.2 544C1564.3 545.3 1635.7 558.7 1706.8 590.3C1778 622 1849 672 1884.5 697L1920 722L1920 1081L1884.5 1081C1849 1081 1778 1081 1706.8 1081C1635.7 1081 1564.3 1081 1493.2 1081C1422 1081 1351 1081 1280 1081C1209 1081 1138 1081 1066.8 1081C995.7 1081 924.3 1081 853.2 1081C782 1081 711 1081 640 1081C569 1081 498 1081 426.8 1081C355.7 1081 284.3 1081 213.2 1081C142 1081 71 1081 35.5 1081L0 1081Z" fill="#37b1de"></path><path d="M0 706L35.5 725.7C71 745.3 142 784.7 213.2 783.8C284.3 783 355.7 742 426.8 739.2C498 736.3 569 771.7 640 765.7C711 759.7 782 712.3 853.2 700.7C924.3 689 995.7 713 1066.8 736.5C1138 760 1209 783 1280 767.8C1351 752.7 1422 699.3 1493.2 687.7C1564.3 676 1635.7 706 1706.8 717C1778 728 1849 720 1884.5 716L1920 712L1920 1081L1884.5 1081C1849 1081 1778 1081 1706.8 1081C1635.7 1081 1564.3 1081 1493.2 1081C1422 1081 1351 1081 1280 1081C1209 1081 1138 1081 1066.8 1081C995.7 1081 924.3 1081 853.2 1081C782 1081 711 1081 640 1081C569 1081 498 1081 426.8 1081C355.7 1081 284.3 1081 213.2 1081C142 1081 71 1081 35.5 1081L0 1081Z" fill="#00a1b7"></path><path d="M0 869L35.5 865.7C71 862.3 142 855.7 213.2 864C284.3 872.3 355.7 895.7 426.8 878.5C498 861.3 569 803.7 640 782.7C711 761.7 782 777.3 853.2 778.2C924.3 779 995.7 765 1066.8 768.2C1138 771.3 1209 791.7 1280 817.8C1351 844 1422 876 1493.2 881.2C1564.3 886.3 1635.7 864.7 1706.8 857C1778 849.3 1849 855.7 1884.5 858.8L1920 862L1920 1081L1884.5 1081C1849 1081 1778 1081 1706.8 1081C1635.7 1081 1564.3 1081 1493.2 1081C1422 1081 1351 1081 1280 1081C1209 1081 1138 1081 1066.8 1081C995.7 1081 924.3 1081 853.2 1081C782 1081 711 1081 640 1081C569 1081 498 1081 426.8 1081C355.7 1081 284.3 1081 213.2 1081C142 1081 71 1081 35.5 1081L0 1081Z" fill="#008e8d"></path><path d="M0 952L35.5 957.5C71 963 142 974 213.2 966C284.3 958 355.7 931 426.8 932.3C498 933.7 569 963.3 640 958.2C711 953 782 913 853.2 899.8C924.3 886.7 995.7 900.3 1066.8 908.7C1138 917 1209 920 1280 914.3C1351 908.7 1422 894.3 1493.2 890.3C1564.3 886.3 1635.7 892.7 1706.8 896C1778 899.3 1849 899.7 1884.5 899.8L1920 900L1920 1081L1884.5 1081C1849 1081 1778 1081 1706.8 1081C1635.7 1081 1564.3 1081 1493.2 1081C1422 1081 1351 1081 1280 1081C1209 1081 1138 1081 1066.8 1081C995.7 1081 924.3 1081 853.2 1081C782 1081 711 1081 640 1081C569 1081 498 1081 426.8 1081C355.7 1081 284.3 1081 213.2 1081C142 1081 71 1081 35.5 1081L0 1081Z" fill="#007a60"></path></svg>