<svg id="visual" viewBox="0 0 1920 1080" width="1920" height="1080" xmlns="http://www.w3.org/2000/svg" xmlns:xlink="http://www.w3.org/1999/xlink" version="1.1"><rect x="0" y="0" width="1920" height="1080" fill="#acd7ce"></rect><path d="M0 529L35.5 533.7C71 538.3 142 547.7 213.2 549.7C284.3 551.7 355.7 546.3 426.8 521.3C498 496.3 569 451.7 640 475.5C711 499.3 782 591.7 853.2 605.2C924.3 618.7 995.7 553.3 1066.8 504.5C1138 455.7 1209 423.3 1280 427.2C1351 431 1422 471 1493.2 521.7C1564.3 572.3 1635.7 633.7 1706.8 638.3C1778 643 1849 591 1884.5 565L1920 539L1920 0L1884.5 0C1849 0 1778 0 1706.8 0C1635.7 0 1564.3 0 1493.2 0C1422 0 1351 0 1280 0C1209 0 1138 0 1066.8 0C995.7 0 924.3 0 853.2 0C782 0 711 0 640 0C569 0 498 0 426.8 0C355.7 0 284.3 0 213.2 0C142 0 71 0 35.5 0L0 0Z" fill="#71beff"></path><path d="M0 350L35.5 373.3C71 396.7 142 443.3 213.2 478.7C284.3 514 355.7 538 426.8 520.5C498 503 569 444 640 421.7C711 399.3 782 413.7 853.2 436.8C924.3 460 995.7 492 1066.8 506.3C1138 520.7 1209 517.3 1280 521C1351 524.7 1422 535.3 1493.2 534C1564.3 532.7 1635.7 519.3 1706.8 487.7C1778 456 1849 406 1884.5 381L1920 356L1920 0L1884.5 0C1849 0 1778 0 1706.8 0C1635.7 0 1564.3 0 1493.2 0C1422 0 1351 0 1280 0C1209 0 1138 0 1066.8 0C995.7 0 924.3 0 853.2 0C782 0 711 0 640 0C569 0 498 0 426.8 0C355.7 0 284.3 0 213.2 0C142 0 71 0 35.5 0L0 0Z" fill="#37b1de"></path><path d="M0 372L35.5 352.3C71 332.7 142 293.3 213.2 294.2C284.3 295 355.7 336 426.8 338.8C498 341.7 569 306.3 640 312.3C711 318.3 782 365.7 853.2 377.3C924.3 389 995.7 365 1066.8 341.5C1138 318 1209 295 1280 310.2C1351 325.3 1422 378.7 1493.2 390.3C1564.3 402 1635.7 372 1706.8 361C1778 350 1849 358 1884.5 362L1920 366L1920 0L1884.5 0C1849 0 1778 0 1706.8 0C1635.7 0 1564.3 0 1493.2 0C1422 0 1351 0 1280 0C1209 0 1138 0 1066.8 0C995.7 0 924.3 0 853.2 0C782 0 711 0 640 0C569 0 498 0 426.8 0C355.7 0 284.3 0 213.2 0C142 0 71 0 35.5 0L0 0Z" fill="#00a1b7"></path><path d="M0 209L35.5 212.3C71 215.7 142 222.3 213.2 214C284.3 205.7 355.7 182.3 426.8 199.5C498 216.7 569 274.3 640 295.3C711 316.3 782 300.7 853.2 299.8C924.3 299 995.7 313 1066.8 309.8C1138 306.7 1209 286.3 1280 260.2C1351 234 1422 202 1493.2 196.8C1564.3 191.7 1635.7 213.3 1706.8 221C1778 228.7 1849 222.3 1884.5 219.2L1920 216L1920 0L1884.5 0C1849 0 1778 0 1706.8 0C1635.7 0 1564.3 0 1493.2 0C1422 0 1351 0 1280 0C1209 0 1138 0 1066.8 0C995.7 0 924.3 0 853.2 0C782 0 711 0 640 0C569 0 498 0 426.8 0C355.7 0 284.3 0 213.2 0C142 0 71 0 35.5 0L0 0Z" fill="#008e8d"></path><path d="M0 126L35.5 120.5C71 115 142 104 213.2 112C284.3 120 355.7 147 426.8 145.7C498 144.3 569 114.7 640 119.8C711 125 782 165 853.2 178.2C924.3 191.3 995.7 177.7 1066.8 169.3C1138 161 1209 158 1280 163.7C1351 169.3 1422 183.7 1493.2 187.7C1564.3 191.7 1635.7 185.3 1706.8 182C1778 178.7 1849 178.3 1884.5 178.2L1920 178L1920 0L1884.5 0C1849 0 1778 0 1706.8 0C1635.7 0 1564.3 0 1493.2 0C1422 0 1351 0 1280 0C1209 0 1138 0 1066.8 0C995.7 0 924.3 0 853.2 0C782 0 711 0 640 0C569 0 498 0 426.8 0C355.7 0 284.3 0 213.2 0C142 0 71 0 35.5 0L0 0Z" fill="#007a60"></path></svg>